# MagicaVoxel @ Ephtracy

# group
o 

# material
mtllib untitled.mtl
usemtl palette

# normals
vn -1 0 0
vn 1 0 0
vn 0 0 1
vn 0 0 -1
vn 0 -1 0
vn 0 1 0

# texcoords
vt 0.369141 0.5
vt 0.537109 0.5
vt 0.958984 0.5
vt 0.966797 0.5
vt 0.978516 0.5
vt 0.982422 0.5
vt 0.994141 0.5

# verts
v -1.4 0 0.1
v -1.4 0 0
v -1.4 0.3 0.1
v -1.4 0.3 0
v -1.2 0.3 0.1
v -1.2 0.3 0
v -1.2 0.4 0.1
v -1.2 0.4 0
v -1.2 0.8 0.1
v -1.2 0.8 0
v -1.2 1 0.1
v -1.2 1 0
v -1.1 0.4 0.1
v -1.1 0.4 0
v -1.1 0.5 0.1
v -1.1 0.5 0
v -1.1 0.6 0.1
v -1.1 0.6 0
v -1.1 0.8 0.1
v -1.1 0.8 0
v -1 0.5 0.1
v -1 0.5 0
v -1 0.6 0.1
v -1 0.6 0
v -0.8 0.3 0.1
v -0.8 0.3 0
v -0.8 0.4 0.1
v -0.8 0.4 0
v -0.8 0.8 0.1
v -0.8 0.8 0
v -0.8 0.9 0.1
v -0.8 0.9 0
v -0.7 0.9 0.1
v -0.7 0.9 0
v -0.7 1 0.1
v -0.7 1 0
v -0.6 0.2 0.1
v -0.6 0.2 0
v -0.6 0.3 0.1
v -0.6 0.3 0
v -0.6 1 0.1
v -0.6 1 0
v -0.6 1.1 0.1
v -0.6 1.1 0
v -0.5 1.1 0.1
v -0.5 1.1 0
v -0.5 1.2 0.1
v -0.5 1.2 0
v -0.4 1.2 0.1
v -0.4 1.2 0
v -0.4 1.3 0.1
v -0.4 1.3 0
v -0.3 1.3 0.1
v -0.3 1.3 0
v -0.3 1.4 0.1
v -0.3 1.4 0
v -0.2 1.4 0.1
v -0.2 1.4 0
v -0.2 1.5 0.1
v -0.2 1.5 0
v -0.1 1.5 0.1
v -0.1 1.5 0
v -0.1 1.6 0.1
v -0.1 1.6 0
v -1.1 0 0.1
v -1.1 0 0
v -1.1 0.2 0.1
v -1.1 0.2 0
v -1 0.2 0.1
v -1 0.2 0
v -1 0.3 0.1
v -1 0.3 0
v -1 0.9 0.1
v -1 0.9 0
v -1 1 0.1
v -1 1 0
v -0.9 0.3 0.1
v -0.9 0.3 0
v -0.9 0.4 0.1
v -0.9 0.4 0
v -0.9 0.8 0.1
v -0.9 0.8 0
v -0.9 0.9 0.1
v -0.9 0.9 0
v -0.6 0.5 0.1
v -0.6 0.5 0
v -0.6 0.6 0.1
v -0.6 0.6 0
v -0.5 0.4 0.1
v -0.5 0.4 0
v -0.5 0.5 0.1
v -0.5 0.5 0
v -0.5 0.6 0.1
v -0.5 0.6 0
v -0.5 0.7 0.1
v -0.5 0.7 0
v -0.4 0.2 0.1
v -0.4 0.2 0
v -0.4 0.4 0.1
v -0.4 0.4 0
v -0.4 0.7 0.1
v -0.4 0.7 0
v -0.4 0.8 0.1
v -0.4 0.8 0
v -0.3 0.8 0.1
v -0.3 0.8 0
v -0.3 0.9 0.1
v -0.3 0.9 0
v -0.2 0.9 0.1
v -0.2 0.9 0
v -0.2 1 0.1
v -0.2 1 0
v -0.1 1 0.1
v -0.1 1 0
v -0.1 1.1 0.1
v -0.1 1.1 0
v 0 1.1 0.1
v 0 1.1 0
v 0 1.2 0.1
v 0 1.2 0
v 0.1 1.2 0.1
v 0.1 1.2 0
v 0.1 1.3 0.1
v 0.1 1.3 0
v 0.2 1.3 0.1
v 0.2 1.3 0
v 0.2 1.6 0.1
v 0.2 1.6 0
v -1.4 0 0.1
v -1.4 0.3 0.1
v -1.3 0.1 0.1
v -1.3 0.2 0.1
v -1.2 0.1 0.1
v -1.2 0.2 0.1
v -1.2 0.3 0.1
v -1.2 0.4 0.1
v -1.2 0.8 0.1
v -1.2 1 0.1
v -1.1 0 0.1
v -1.1 0.2 0.1
v -1.1 0.3 0.1
v -1.1 0.4 0.1
v -1.1 0.5 0.1
v -1.1 0.6 0.1
v -1.1 0.8 0.1
v -1.1 0.9 0.1
v -1 0.2 0.1
v -1 0.3 0.1
v -1 0.4 0.1
v -1 0.5 0.1
v -1 0.6 0.1
v -1 0.8 0.1
v -1 0.9 0.1
v -1 1 0.1
v -0.9 0.3 0.1
v -0.9 0.4 0.1
v -0.9 0.5 0.1
v -0.9 0.6 0.1
v -0.9 0.8 0.1
v -0.9 0.9 0.1
v -0.8 0.3 0.1
v -0.8 0.4 0.1
v -0.8 0.5 0.1
v -0.8 0.6 0.1
v -0.8 0.7 0.1
v -0.8 0.8 0.1
v -0.8 0.9 0.1
v -0.7 0.4 0.1
v -0.7 0.5 0.1
v -0.7 0.6 0.1
v -0.7 0.7 0.1
v -0.7 0.8 0.1
v -0.7 0.9 0.1
v -0.7 1 0.1
v -0.6 0.2 0.1
v -0.6 0.3 0.1
v -0.6 0.4 0.1
v -0.6 0.5 0.1
v -0.6 0.6 0.1
v -0.6 0.7 0.1
v -0.6 0.8 0.1
v -0.6 0.9 0.1
v -0.6 1 0.1
v -0.6 1.1 0.1
v -0.5 0.3 0.1
v -0.5 0.4 0.1
v -0.5 0.5 0.1
v -0.5 0.6 0.1
v -0.5 0.7 0.1
v -0.5 0.8 0.1
v -0.5 0.9 0.1
v -0.5 1 0.1
v -0.5 1.1 0.1
v -0.5 1.2 0.1
v -0.4 0.2 0.1
v -0.4 0.4 0.1
v -0.4 0.7 0.1
v -0.4 0.8 0.1
v -0.4 0.9 0.1
v -0.4 1 0.1
v -0.4 1.1 0.1
v -0.4 1.2 0.1
v -0.4 1.3 0.1
v -0.3 0.8 0.1
v -0.3 0.9 0.1
v -0.3 1 0.1
v -0.3 1.1 0.1
v -0.3 1.2 0.1
v -0.3 1.3 0.1
v -0.3 1.4 0.1
v -0.2 0.9 0.1
v -0.2 1 0.1
v -0.2 1.1 0.1
v -0.2 1.2 0.1
v -0.2 1.3 0.1
v -0.2 1.4 0.1
v -0.2 1.5 0.1
v -0.1 1 0.1
v -0.1 1.1 0.1
v -0.1 1.2 0.1
v -0.1 1.3 0.1
v -0.1 1.4 0.1
v -0.1 1.5 0.1
v -0.1 1.6 0.1
v 0 1.1 0.1
v 0 1.2 0.1
v 0 1.3 0.1
v 0 1.4 0.1
v 0 1.5 0.1
v 0.1 1.2 0.1
v 0.1 1.3 0.1
v 0.1 1.4 0.1
v 0.1 1.5 0.1
v 0.2 1.3 0.1
v 0.2 1.6 0.1
v -1.4 0 0
v -1.4 0.3 0
v -1.3 0.1 0
v -1.3 0.2 0
v -1.2 0.1 0
v -1.2 0.2 0
v -1.2 0.3 0
v -1.2 0.4 0
v -1.2 0.8 0
v -1.2 1 0
v -1.1 0 0
v -1.1 0.2 0
v -1.1 0.3 0
v -1.1 0.4 0
v -1.1 0.5 0
v -1.1 0.6 0
v -1.1 0.8 0
v -1.1 0.9 0
v -1 0.2 0
v -1 0.3 0
v -1 0.4 0
v -1 0.5 0
v -1 0.6 0
v -1 0.8 0
v -1 0.9 0
v -1 1 0
v -0.9 0.3 0
v -0.9 0.4 0
v -0.9 0.5 0
v -0.9 0.6 0
v -0.9 0.8 0
v -0.9 0.9 0
v -0.8 0.3 0
v -0.8 0.4 0
v -0.8 0.5 0
v -0.8 0.6 0
v -0.8 0.7 0
v -0.8 0.8 0
v -0.8 0.9 0
v -0.7 0.4 0
v -0.7 0.5 0
v -0.7 0.6 0
v -0.7 0.7 0
v -0.7 0.8 0
v -0.7 0.9 0
v -0.7 1 0
v -0.6 0.2 0
v -0.6 0.3 0
v -0.6 0.4 0
v -0.6 0.5 0
v -0.6 0.6 0
v -0.6 0.7 0
v -0.6 0.8 0
v -0.6 0.9 0
v -0.6 1 0
v -0.6 1.1 0
v -0.5 0.3 0
v -0.5 0.4 0
v -0.5 0.5 0
v -0.5 0.6 0
v -0.5 0.7 0
v -0.5 0.8 0
v -0.5 0.9 0
v -0.5 1 0
v -0.5 1.1 0
v -0.5 1.2 0
v -0.4 0.2 0
v -0.4 0.4 0
v -0.4 0.7 0
v -0.4 0.8 0
v -0.4 0.9 0
v -0.4 1 0
v -0.4 1.1 0
v -0.4 1.2 0
v -0.4 1.3 0
v -0.3 0.8 0
v -0.3 0.9 0
v -0.3 1 0
v -0.3 1.1 0
v -0.3 1.2 0
v -0.3 1.3 0
v -0.3 1.4 0
v -0.2 0.9 0
v -0.2 1 0
v -0.2 1.1 0
v -0.2 1.2 0
v -0.2 1.3 0
v -0.2 1.4 0
v -0.2 1.5 0
v -0.1 1 0
v -0.1 1.1 0
v -0.1 1.2 0
v -0.1 1.3 0
v -0.1 1.4 0
v -0.1 1.5 0
v -0.1 1.6 0
v 0 1.1 0
v 0 1.2 0
v 0 1.3 0
v 0 1.4 0
v 0 1.5 0
v 0.1 1.2 0
v 0.1 1.3 0
v 0.1 1.4 0
v 0.1 1.5 0
v 0.2 1.3 0
v 0.2 1.6 0
v -1.4 0 0.1
v -1.1 0 0.1
v -1.4 0 0
v -1.1 0 0
v -1.1 0.2 0.1
v -1 0.2 0.1
v -0.6 0.2 0.1
v -0.4 0.2 0.1
v -1.1 0.2 0
v -1 0.2 0
v -0.6 0.2 0
v -0.4 0.2 0
v -1 0.3 0.1
v -0.9 0.3 0.1
v -0.8 0.3 0.1
v -0.6 0.3 0.1
v -1 0.3 0
v -0.9 0.3 0
v -0.8 0.3 0
v -0.6 0.3 0
v -0.9 0.4 0.1
v -0.8 0.4 0.1
v -0.9 0.4 0
v -0.8 0.4 0
v -1.1 0.6 0.1
v -1 0.6 0.1
v -0.6 0.6 0.1
v -0.5 0.6 0.1
v -1.1 0.6 0
v -1 0.6 0
v -0.6 0.6 0
v -0.5 0.6 0
v -0.5 0.7 0.1
v -0.4 0.7 0.1
v -0.5 0.7 0
v -0.4 0.7 0
v -1.2 0.8 0.1
v -1.1 0.8 0.1
v -0.4 0.8 0.1
v -0.3 0.8 0.1
v -1.2 0.8 0
v -1.1 0.8 0
v -0.4 0.8 0
v -0.3 0.8 0
v -0.3 0.9 0.1
v -0.2 0.9 0.1
v -0.3 0.9 0
v -0.2 0.9 0
v -0.2 1 0.1
v -0.1 1 0.1
v -0.2 1 0
v -0.1 1 0
v -0.1 1.1 0.1
v 0 1.1 0.1
v -0.1 1.1 0
v 0 1.1 0
v 0 1.2 0.1
v 0.1 1.2 0.1
v 0 1.2 0
v 0.1 1.2 0
v 0.1 1.3 0.1
v 0.2 1.3 0.1
v 0.1 1.3 0
v 0.2 1.3 0
v -1.4 0.3 0.1
v -1.2 0.3 0.1
v -1.4 0.3 0
v -1.2 0.3 0
v -1.2 0.4 0.1
v -1.1 0.4 0.1
v -0.5 0.4 0.1
v -0.4 0.4 0.1
v -1.2 0.4 0
v -1.1 0.4 0
v -0.5 0.4 0
v -0.4 0.4 0
v -1.1 0.5 0.1
v -1 0.5 0.1
v -0.6 0.5 0.1
v -0.5 0.5 0.1
v -1.1 0.5 0
v -1 0.5 0
v -0.6 0.5 0
v -0.5 0.5 0
v -0.9 0.8 0.1
v -0.8 0.8 0.1
v -0.9 0.8 0
v -0.8 0.8 0
v -1 0.9 0.1
v -0.9 0.9 0.1
v -0.8 0.9 0.1
v -0.7 0.9 0.1
v -1 0.9 0
v -0.9 0.9 0
v -0.8 0.9 0
v -0.7 0.9 0
v -1.2 1 0.1
v -1 1 0.1
v -0.7 1 0.1
v -0.6 1 0.1
v -1.2 1 0
v -1 1 0
v -0.7 1 0
v -0.6 1 0
v -0.6 1.1 0.1
v -0.5 1.1 0.1
v -0.6 1.1 0
v -0.5 1.1 0
v -0.5 1.2 0.1
v -0.4 1.2 0.1
v -0.5 1.2 0
v -0.4 1.2 0
v -0.4 1.3 0.1
v -0.3 1.3 0.1
v -0.4 1.3 0
v -0.3 1.3 0
v -0.3 1.4 0.1
v -0.2 1.4 0.1
v -0.3 1.4 0
v -0.2 1.4 0
v -0.2 1.5 0.1
v -0.1 1.5 0.1
v -0.2 1.5 0
v -0.1 1.5 0
v -0.1 1.6 0.1
v 0.2 1.6 0.1
v -0.1 1.6 0
v 0.2 1.6 0

# faces
f 3/7/1 2/7/1 1/7/1
f 4/7/1 2/7/1 3/7/1
f 7/7/1 6/7/1 5/7/1
f 8/7/1 6/7/1 7/7/1
f 11/7/1 10/7/1 9/7/1
f 12/7/1 10/7/1 11/7/1
f 15/7/1 14/7/1 13/7/1
f 16/7/1 14/7/1 15/7/1
f 19/7/1 18/7/1 17/7/1
f 20/7/1 18/7/1 19/7/1
f 23/7/1 22/7/1 21/7/1
f 24/7/1 22/7/1 23/7/1
f 27/7/1 26/7/1 25/7/1
f 28/7/1 26/7/1 27/7/1
f 31/7/1 30/7/1 29/7/1
f 32/7/1 30/7/1 31/7/1
f 35/7/1 34/7/1 33/7/1
f 36/7/1 34/7/1 35/7/1
f 39/7/1 38/7/1 37/7/1
f 40/7/1 38/7/1 39/7/1
f 43/7/1 42/7/1 41/7/1
f 44/7/1 42/7/1 43/7/1
f 47/7/1 46/7/1 45/7/1
f 48/7/1 46/7/1 47/7/1
f 51/7/1 50/7/1 49/7/1
f 52/7/1 50/7/1 51/7/1
f 55/7/1 54/7/1 53/7/1
f 56/7/1 54/7/1 55/7/1
f 59/7/1 58/7/1 57/7/1
f 60/7/1 58/7/1 59/7/1
f 63/7/1 62/7/1 61/7/1
f 64/7/1 62/7/1 63/7/1
f 65/7/2 66/7/2 67/7/2
f 67/7/2 66/7/2 68/7/2
f 69/7/2 70/7/2 71/7/2
f 71/7/2 70/7/2 72/7/2
f 73/7/2 74/7/2 75/7/2
f 75/7/2 74/7/2 76/7/2
f 77/7/2 78/7/2 79/7/2
f 79/7/2 78/7/2 80/7/2
f 81/7/2 82/7/2 83/7/2
f 83/7/2 82/7/2 84/7/2
f 85/7/2 86/7/2 87/7/2
f 87/7/2 86/7/2 88/7/2
f 89/7/2 90/7/2 91/7/2
f 91/7/2 90/7/2 92/7/2
f 93/7/2 94/7/2 95/7/2
f 95/7/2 94/7/2 96/7/2
f 97/7/2 98/7/2 99/7/2
f 99/7/2 98/7/2 100/7/2
f 101/7/2 102/7/2 103/7/2
f 103/7/2 102/7/2 104/7/2
f 105/7/2 106/7/2 107/7/2
f 107/7/2 106/7/2 108/7/2
f 109/7/2 110/7/2 111/7/2
f 111/7/2 110/7/2 112/7/2
f 113/7/2 114/7/2 115/7/2
f 115/7/2 114/7/2 116/7/2
f 117/7/2 118/7/2 119/7/2
f 119/7/2 118/7/2 120/7/2
f 121/7/2 122/7/2 123/7/2
f 123/7/2 122/7/2 124/7/2
f 125/7/2 126/7/2 127/7/2
f 127/7/2 126/7/2 128/7/2
f 131/7/3 130/7/3 129/7/3
f 132/7/3 130/7/3 131/7/3
f 133/7/3 131/7/3 129/7/3
f 133/6/3 132/6/3 131/6/3
f 134/7/3 130/7/3 132/7/3
f 134/6/3 132/6/3 133/6/3
f 135/7/3 130/7/3 134/7/3
f 139/7/3 133/7/3 129/7/3
f 139/7/3 134/7/3 133/7/3
f 140/2/3 135/2/3 134/2/3
f 140/7/3 134/7/3 139/7/3
f 141/7/3 136/7/3 135/7/3
f 141/2/3 135/2/3 140/2/3
f 142/7/3 136/7/3 141/7/3
f 145/7/3 138/7/3 137/7/3
f 146/7/3 138/7/3 145/7/3
f 147/7/3 141/7/3 140/7/3
f 148/1/3 142/1/3 141/1/3
f 148/7/3 141/7/3 147/7/3
f 149/7/3 143/7/3 142/7/3
f 149/1/3 142/1/3 148/1/3
f 150/7/3 143/7/3 149/7/3
f 151/7/3 145/7/3 144/7/3
f 152/6/3 146/6/3 145/6/3
f 152/7/3 145/7/3 151/7/3
f 153/7/3 138/7/3 146/7/3
f 153/6/3 146/6/3 152/6/3
f 154/7/3 138/7/3 153/7/3
f 155/7/3 149/7/3 148/7/3
f 156/2/3 150/2/3 149/2/3
f 156/7/3 149/7/3 155/7/3
f 157/7/3 151/7/3 150/7/3
f 157/2/3 150/2/3 156/2/3
f 158/5/3 152/5/3 151/5/3
f 158/7/3 151/7/3 157/7/3
f 159/7/3 153/7/3 152/7/3
f 159/5/3 152/5/3 158/5/3
f 160/7/3 153/7/3 159/7/3
f 162/7/3 157/7/3 156/7/3
f 163/5/3 158/5/3 157/5/3
f 163/7/3 157/7/3 162/7/3
f 164/7/3 159/7/3 158/7/3
f 164/5/3 158/5/3 163/5/3
f 165/7/3 159/7/3 164/7/3
f 166/7/3 159/7/3 165/7/3
f 168/5/3 163/5/3 162/5/3
f 168/7/3 162/7/3 161/7/3
f 169/7/3 164/7/3 163/7/3
f 169/5/3 163/5/3 168/5/3
f 170/4/3 165/4/3 164/4/3
f 170/7/3 164/7/3 169/7/3
f 171/3/3 166/3/3 165/3/3
f 171/4/3 165/4/3 170/4/3
f 172/7/3 167/7/3 166/7/3
f 172/3/3 166/3/3 171/3/3
f 173/7/3 167/7/3 172/7/3
f 176/7/3 168/7/3 161/7/3
f 177/6/3 169/6/3 168/6/3
f 177/7/3 168/7/3 176/7/3
f 178/7/3 170/7/3 169/7/3
f 178/6/3 169/6/3 177/6/3
f 179/3/3 171/3/3 170/3/3
f 179/7/3 170/7/3 178/7/3
f 180/4/3 172/4/3 171/4/3
f 180/3/3 171/3/3 179/3/3
f 181/3/3 173/3/3 172/3/3
f 181/4/3 172/4/3 180/4/3
f 182/7/3 174/7/3 173/7/3
f 182/3/3 173/3/3 181/3/3
f 183/7/3 174/7/3 182/7/3
f 185/6/3 177/6/3 176/6/3
f 185/7/3 176/7/3 175/7/3
f 186/7/3 178/7/3 177/7/3
f 186/6/3 177/6/3 185/6/3
f 187/7/3 178/7/3 186/7/3
f 188/7/3 180/7/3 179/7/3
f 189/3/3 181/3/3 180/3/3
f 189/7/3 180/7/3 188/7/3
f 190/4/3 182/4/3 181/4/3
f 190/3/3 181/3/3 189/3/3
f 191/3/3 183/3/3 182/3/3
f 191/4/3 182/4/3 190/4/3
f 192/7/3 184/7/3 183/7/3
f 192/3/3 183/3/3 191/3/3
f 193/7/3 184/7/3 192/7/3
f 195/7/3 185/7/3 175/7/3
f 195/7/3 186/7/3 185/7/3
f 196/7/3 186/7/3 195/7/3
f 197/7/3 190/7/3 189/7/3
f 198/3/3 191/3/3 190/3/3
f 198/7/3 190/7/3 197/7/3
f 199/4/3 192/4/3 191/4/3
f 199/3/3 191/3/3 198/3/3
f 200/3/3 193/3/3 192/3/3
f 200/4/3 192/4/3 199/4/3
f 201/7/3 194/7/3 193/7/3
f 201/3/3 193/3/3 200/3/3
f 202/7/3 194/7/3 201/7/3
f 204/7/3 199/7/3 198/7/3
f 205/3/3 200/3/3 199/3/3
f 205/7/3 199/7/3 204/7/3
f 206/4/3 201/4/3 200/4/3
f 206/3/3 200/3/3 205/3/3
f 207/3/3 202/3/3 201/3/3
f 207/4/3 201/4/3 206/4/3
f 208/7/3 203/7/3 202/7/3
f 208/3/3 202/3/3 207/3/3
f 209/7/3 203/7/3 208/7/3
f 211/7/3 206/7/3 205/7/3
f 212/3/3 207/3/3 206/3/3
f 212/7/3 206/7/3 211/7/3
f 213/4/3 208/4/3 207/4/3
f 213/3/3 207/3/3 212/3/3
f 214/3/3 209/3/3 208/3/3
f 214/4/3 208/4/3 213/4/3
f 215/7/3 210/7/3 209/7/3
f 215/3/3 209/3/3 214/3/3
f 216/7/3 210/7/3 215/7/3
f 218/7/3 213/7/3 212/7/3
f 219/3/3 214/3/3 213/3/3
f 219/7/3 213/7/3 218/7/3
f 220/4/3 215/4/3 214/4/3
f 220/3/3 214/3/3 219/3/3
f 221/3/3 216/3/3 215/3/3
f 221/4/3 215/4/3 220/4/3
f 222/7/3 217/7/3 216/7/3
f 222/3/3 216/3/3 221/3/3
f 223/7/3 217/7/3 222/7/3
f 225/7/3 220/7/3 219/7/3
f 226/3/3 221/3/3 220/3/3
f 226/7/3 220/7/3 225/7/3
f 227/4/3 222/4/3 221/4/3
f 227/3/3 221/3/3 226/3/3
f 228/3/3 223/3/3 222/3/3
f 228/4/3 222/4/3 227/4/3
f 229/7/3 224/7/3 223/7/3
f 229/3/3 223/3/3 228/3/3
f 230/7/3 227/7/3 226/7/3
f 231/3/3 228/3/3 227/3/3
f 231/7/3 227/7/3 230/7/3
f 232/4/3 229/4/3 228/4/3
f 232/3/3 228/3/3 231/3/3
f 233/7/3 224/7/3 229/7/3
f 233/4/3 229/4/3 232/4/3
f 234/7/3 232/7/3 231/7/3
f 234/7/3 233/7/3 232/7/3
f 235/7/3 224/7/3 233/7/3
f 235/7/3 233/7/3 234/7/3
f 236/7/4 237/7/4 238/7/4
f 238/7/4 237/7/4 239/7/4
f 236/7/4 238/7/4 240/7/4
f 238/6/4 239/6/4 240/6/4
f 239/7/4 237/7/4 241/7/4
f 240/6/4 239/6/4 241/6/4
f 241/7/4 237/7/4 242/7/4
f 236/7/4 240/7/4 246/7/4
f 240/7/4 241/7/4 246/7/4
f 241/2/4 242/2/4 247/2/4
f 246/7/4 241/7/4 247/7/4
f 242/7/4 243/7/4 248/7/4
f 247/2/4 242/2/4 248/2/4
f 248/7/4 243/7/4 249/7/4
f 244/7/4 245/7/4 252/7/4
f 252/7/4 245/7/4 253/7/4
f 247/7/4 248/7/4 254/7/4
f 248/1/4 249/1/4 255/1/4
f 254/7/4 248/7/4 255/7/4
f 249/7/4 250/7/4 256/7/4
f 255/1/4 249/1/4 256/1/4
f 256/7/4 250/7/4 257/7/4
f 251/7/4 252/7/4 258/7/4
f 252/6/4 253/6/4 259/6/4
f 258/7/4 252/7/4 259/7/4
f 253/7/4 245/7/4 260/7/4
f 259/6/4 253/6/4 260/6/4
f 260/7/4 245/7/4 261/7/4
f 255/7/4 256/7/4 262/7/4
f 256/2/4 257/2/4 263/2/4
f 262/7/4 256/7/4 263/7/4
f 257/7/4 258/7/4 264/7/4
f 263/2/4 257/2/4 264/2/4
f 258/5/4 259/5/4 265/5/4
f 264/7/4 258/7/4 265/7/4
f 259/7/4 260/7/4 266/7/4
f 265/5/4 259/5/4 266/5/4
f 266/7/4 260/7/4 267/7/4
f 263/7/4 264/7/4 269/7/4
f 264/5/4 265/5/4 270/5/4
f 269/7/4 264/7/4 270/7/4
f 265/7/4 266/7/4 271/7/4
f 270/5/4 265/5/4 271/5/4
f 271/7/4 266/7/4 272/7/4
f 272/7/4 266/7/4 273/7/4
f 269/5/4 270/5/4 275/5/4
f 268/7/4 269/7/4 275/7/4
f 270/7/4 271/7/4 276/7/4
f 275/5/4 270/5/4 276/5/4
f 271/4/4 272/4/4 277/4/4
f 276/7/4 271/7/4 277/7/4
f 272/3/4 273/3/4 278/3/4
f 277/4/4 272/4/4 278/4/4
f 273/7/4 274/7/4 279/7/4
f 278/3/4 273/3/4 279/3/4
f 279/7/4 274/7/4 280/7/4
f 268/7/4 275/7/4 283/7/4
f 275/6/4 276/6/4 284/6/4
f 283/7/4 275/7/4 284/7/4
f 276/7/4 277/7/4 285/7/4
f 284/6/4 276/6/4 285/6/4
f 277/3/4 278/3/4 286/3/4
f 285/7/4 277/7/4 286/7/4
f 278/4/4 279/4/4 287/4/4
f 286/3/4 278/3/4 287/3/4
f 279/3/4 280/3/4 288/3/4
f 287/4/4 279/4/4 288/4/4
f 280/7/4 281/7/4 289/7/4
f 288/3/4 280/3/4 289/3/4
f 289/7/4 281/7/4 290/7/4
f 283/6/4 284/6/4 292/6/4
f 282/7/4 283/7/4 292/7/4
f 284/7/4 285/7/4 293/7/4
f 292/6/4 284/6/4 293/6/4
f 293/7/4 285/7/4 294/7/4
f 286/7/4 287/7/4 295/7/4
f 287/3/4 288/3/4 296/3/4
f 295/7/4 287/7/4 296/7/4
f 288/4/4 289/4/4 297/4/4
f 296/3/4 288/3/4 297/3/4
f 289/3/4 290/3/4 298/3/4
f 297/4/4 289/4/4 298/4/4
f 290/7/4 291/7/4 299/7/4
f 298/3/4 290/3/4 299/3/4
f 299/7/4 291/7/4 300/7/4
f 282/7/4 292/7/4 302/7/4
f 292/7/4 293/7/4 302/7/4
f 302/7/4 293/7/4 303/7/4
f 296/7/4 297/7/4 304/7/4
f 297/3/4 298/3/4 305/3/4
f 304/7/4 297/7/4 305/7/4
f 298/4/4 299/4/4 306/4/4
f 305/3/4 298/3/4 306/3/4
f 299/3/4 300/3/4 307/3/4
f 306/4/4 299/4/4 307/4/4
f 300/7/4 301/7/4 308/7/4
f 307/3/4 300/3/4 308/3/4
f 308/7/4 301/7/4 309/7/4
f 305/7/4 306/7/4 311/7/4
f 306/3/4 307/3/4 312/3/4
f 311/7/4 306/7/4 312/7/4
f 307/4/4 308/4/4 313/4/4
f 312/3/4 307/3/4 313/3/4
f 308/3/4 309/3/4 314/3/4
f 313/4/4 308/4/4 314/4/4
f 309/7/4 310/7/4 315/7/4
f 314/3/4 309/3/4 315/3/4
f 315/7/4 310/7/4 316/7/4
f 312/7/4 313/7/4 318/7/4
f 313/3/4 314/3/4 319/3/4
f 318/7/4 313/7/4 319/7/4
f 314/4/4 315/4/4 320/4/4
f 319/3/4 314/3/4 320/3/4
f 315/3/4 316/3/4 321/3/4
f 320/4/4 315/4/4 321/4/4
f 316/7/4 317/7/4 322/7/4
f 321/3/4 316/3/4 322/3/4
f 322/7/4 317/7/4 323/7/4
f 319/7/4 320/7/4 325/7/4
f 320/3/4 321/3/4 326/3/4
f 325/7/4 320/7/4 326/7/4
f 321/4/4 322/4/4 327/4/4
f 326/3/4 321/3/4 327/3/4
f 322/3/4 323/3/4 328/3/4
f 327/4/4 322/4/4 328/4/4
f 323/7/4 324/7/4 329/7/4
f 328/3/4 323/3/4 329/3/4
f 329/7/4 324/7/4 330/7/4
f 326/7/4 327/7/4 332/7/4
f 327/3/4 328/3/4 333/3/4
f 332/7/4 327/7/4 333/7/4
f 328/4/4 329/4/4 334/4/4
f 333/3/4 328/3/4 334/3/4
f 329/3/4 330/3/4 335/3/4
f 334/4/4 329/4/4 335/4/4
f 330/7/4 331/7/4 336/7/4
f 335/3/4 330/3/4 336/3/4
f 333/7/4 334/7/4 337/7/4
f 334/3/4 335/3/4 338/3/4
f 337/7/4 334/7/4 338/7/4
f 335/4/4 336/4/4 339/4/4
f 338/3/4 335/3/4 339/3/4
f 336/7/4 331/7/4 340/7/4
f 339/4/4 336/4/4 340/4/4
f 338/7/4 339/7/4 341/7/4
f 339/7/4 340/7/4 341/7/4
f 340/7/4 331/7/4 342/7/4
f 341/7/4 340/7/4 342/7/4
f 345/7/5 344/7/5 343/7/5
f 346/7/5 344/7/5 345/7/5
f 351/7/5 348/7/5 347/7/5
f 352/7/5 348/7/5 351/7/5
f 353/7/5 350/7/5 349/7/5
f 354/7/5 350/7/5 353/7/5
f 359/7/5 356/7/5 355/7/5
f 360/7/5 356/7/5 359/7/5
f 361/7/5 358/7/5 357/7/5
f 362/7/5 358/7/5 361/7/5
f 365/7/5 364/7/5 363/7/5
f 366/7/5 364/7/5 365/7/5
f 371/7/5 368/7/5 367/7/5
f 372/7/5 368/7/5 371/7/5
f 373/7/5 370/7/5 369/7/5
f 374/7/5 370/7/5 373/7/5
f 377/7/5 376/7/5 375/7/5
f 378/7/5 376/7/5 377/7/5
f 383/7/5 380/7/5 379/7/5
f 384/7/5 380/7/5 383/7/5
f 385/7/5 382/7/5 381/7/5
f 386/7/5 382/7/5 385/7/5
f 389/7/5 388/7/5 387/7/5
f 390/7/5 388/7/5 389/7/5
f 393/7/5 392/7/5 391/7/5
f 394/7/5 392/7/5 393/7/5
f 397/7/5 396/7/5 395/7/5
f 398/7/5 396/7/5 397/7/5
f 401/7/5 400/7/5 399/7/5
f 402/7/5 400/7/5 401/7/5
f 405/7/5 404/7/5 403/7/5
f 406/7/5 404/7/5 405/7/5
f 407/7/6 408/7/6 409/7/6
f 409/7/6 408/7/6 410/7/6
f 411/7/6 412/7/6 415/7/6
f 415/7/6 412/7/6 416/7/6
f 413/7/6 414/7/6 417/7/6
f 417/7/6 414/7/6 418/7/6
f 419/7/6 420/7/6 423/7/6
f 423/7/6 420/7/6 424/7/6
f 421/7/6 422/7/6 425/7/6
f 425/7/6 422/7/6 426/7/6
f 427/7/6 428/7/6 429/7/6
f 429/7/6 428/7/6 430/7/6
f 431/7/6 432/7/6 435/7/6
f 435/7/6 432/7/6 436/7/6
f 433/7/6 434/7/6 437/7/6
f 437/7/6 434/7/6 438/7/6
f 439/7/6 440/7/6 443/7/6
f 443/7/6 440/7/6 444/7/6
f 441/7/6 442/7/6 445/7/6
f 445/7/6 442/7/6 446/7/6
f 447/7/6 448/7/6 449/7/6
f 449/7/6 448/7/6 450/7/6
f 451/7/6 452/7/6 453/7/6
f 453/7/6 452/7/6 454/7/6
f 455/7/6 456/7/6 457/7/6
f 457/7/6 456/7/6 458/7/6
f 459/7/6 460/7/6 461/7/6
f 461/7/6 460/7/6 462/7/6
f 463/7/6 464/7/6 465/7/6
f 465/7/6 464/7/6 466/7/6
f 467/7/6 468/7/6 469/7/6
f 469/7/6 468/7/6 470/7/6
